<svg width="40" height="70" viewBox="0 0 40 70" fill="none" xmlns="http://www.w3.org/2000/svg">
<path d="M28.0371 60.1835L28.0371 51.3423L13.7196 51.3423L13.7196 46.3278L28.0371 46.3278L28.0371 33L33.5134 33L33.5134 65.2639L12.0041 65.2639L12.0701 60.1835L28.0371 60.1835Z" fill="#F0D35E"/>
<path d="M9.96289 53.1835L9.96289 44.3423L24.2804 44.3423L24.2804 39.3278L9.96289 39.3278L9.96289 26L4.4866 26L4.4866 58.2639L25.9959 58.2639L25.9299 53.1835L9.96289 53.1835Z" fill="#F0D35E"/>
<path d="M17.1967 14.2069C20.6197 22.0532 17.8951 30.813 17.8951 30.813C17.8951 30.813 9.6208 26.8515 6.19783 19.0053C2.77486 11.159 5.49946 2.39918 5.49946 2.39918C5.49946 2.39918 13.7738 6.36068 17.1967 14.2069Z" fill="#F0D35E"/>
<path d="M32.1423 27.4234C27.8621 34.8369 19.1962 37.8468 19.1962 37.8468C19.1962 37.8468 17.4698 28.8369 21.75 21.4234C26.0302 14.0099 34.6962 11 34.6962 11C34.6962 11 36.4225 20.0099 32.1423 27.4234Z" fill="#F0D35E"/>
</svg>
