<svg width="32" height="32" viewBox="0 0 32 32" fill="none" xmlns="http://www.w3.org/2000/svg">
<path d="M22.3998 21.7601H8.31984C8.12784 21.7601 7.93584 21.6321 7.80784 21.5041C7.67984 21.3761 7.67984 21.1201 7.74384 20.9281L8.95984 17.8561L7.74384 6.40012H3.83984V5.12012H8.31984C8.63984 5.12012 8.89584 5.37612 8.95984 5.69612L10.2398 17.8561C10.2398 17.9841 10.2398 18.0481 10.1758 18.1761L9.27984 20.4801H23.0398L22.3998 21.7601Z" fill="#252927"/>
<path d="M9.72714 18.5599L9.47114 17.2799L24.3191 14.2079V8.95993H8.95914V7.67993H24.9591C25.3431 7.67993 25.5991 7.93593 25.5991 8.31993V14.7199C25.5991 15.0399 25.4071 15.2959 25.0871 15.3599L9.72714 18.5599ZM23.0391 25.5999C21.6311 25.5999 20.4791 24.4479 20.4791 23.0399C20.4791 21.6319 21.6311 20.4799 23.0391 20.4799C24.4471 20.4799 25.5991 21.6319 25.5991 23.0399C25.5991 24.4479 24.4471 25.5999 23.0391 25.5999ZM23.0391 21.7599C22.3351 21.7599 21.7591 22.3359 21.7591 23.0399C21.7591 23.7439 22.3351 24.3199 23.0391 24.3199C23.7431 24.3199 24.3191 23.7439 24.3191 23.0399C24.3191 22.3359 23.7431 21.7599 23.0391 21.7599ZM7.67914 25.5999C6.27114 25.5999 5.11914 24.4479 5.11914 23.0399C5.11914 21.6319 6.27114 20.4799 7.67914 20.4799C9.08714 20.4799 10.2391 21.6319 10.2391 23.0399C10.2391 24.4479 9.08714 25.5999 7.67914 25.5999ZM7.67914 21.7599C6.97514 21.7599 6.39914 22.3359 6.39914 23.0399C6.39914 23.7439 6.97514 24.3199 7.67914 24.3199C8.38314 24.3199 8.95914 23.7439 8.95914 23.0399C8.95914 22.3359 8.38314 21.7599 7.67914 21.7599Z" fill="#252927"/>
</svg>
