<svg width="42" height="42" viewBox="0 0 42 42" fill="none" xmlns="http://www.w3.org/2000/svg">
<mask id="path-1-inside-1_32_506" fill="white">
<path d="M5.25 21C5.25 12.3165 12.3165 5.25 21 5.25C29.6835 5.25 36.75 12.3165 36.75 21C36.75 29.6835 29.6835 36.75 21 36.75C12.3165 36.75 5.25 29.6835 5.25 21Z"/>
</mask>
<path d="M26.8219 23.9799L26.3278 23.9036V23.9036L26.8219 23.9799ZM27.0996 22.1829L27.5937 22.2592L27.0996 22.1829ZM26.447 12.5698L26.4901 12.0716L26.447 12.5698ZM23.453 36V25.8273H22.453V36H23.453ZM23.953 25.3273H25.8336V24.3273H23.953V25.3273ZM27.3161 24.0563L27.5937 22.2592L26.6054 22.1065L26.3278 23.9036L27.3161 24.0563ZM26.1113 20.5302H23.953V21.5302H26.1113V20.5302ZM23.453 20.0302V18.9564H22.453V20.0302H23.453ZM23.453 18.9564C23.453 18.2101 23.5781 17.5663 23.8301 17.1269C24.0636 16.7201 24.4043 16.481 24.9454 16.481V15.481C24.0125 15.481 23.3571 15.9421 22.9628 16.6293C22.5872 17.2839 22.453 18.1278 22.453 18.9564H23.453ZM24.9454 16.481H26.3144V15.481H24.9454V16.481ZM27.8144 14.981V13.5418H26.8144V14.981H27.8144ZM26.4901 12.0716C25.9803 12.0275 25.286 11.9897 24.3534 11.9897V12.9897C25.2584 12.9897 25.924 13.0264 26.4039 13.0679L26.4901 12.0716ZM24.3534 11.9897C22.5316 11.9897 21.0022 12.4719 19.9335 13.5833C18.8681 14.6913 18.3409 16.3415 18.3409 18.5063H19.3409C19.3409 16.4894 19.8323 15.1313 20.6543 14.2764C21.4729 13.4251 22.6998 12.9897 24.3534 12.9897V11.9897ZM18.3409 18.5063V20.0302H19.3409V18.5063H18.3409ZM17.8409 20.5302H16.2683V21.5302H17.8409V20.5302ZM14.7683 22.0302V23.8273H15.7683V22.0302H14.7683ZM16.2683 25.3273H17.8409V24.3273H16.2683V25.3273ZM18.3409 25.8273V36H19.3409V25.8273H18.3409ZM18.3409 20.0302C18.3409 20.3063 18.1171 20.5302 17.8409 20.5302V21.5302C18.6694 21.5302 19.3409 20.8586 19.3409 20.0302H18.3409ZM27.8144 13.5418C27.8144 12.7993 27.264 12.1386 26.4901 12.0716L26.4039 13.0679C26.627 13.0872 26.8144 13.2835 26.8144 13.5418H27.8144ZM23.953 20.5302C23.6769 20.5302 23.453 20.3063 23.453 20.0302H22.453C22.453 20.8586 23.1246 21.5302 23.953 21.5302V20.5302ZM17.8409 25.3273C18.1171 25.3273 18.3409 25.5511 18.3409 25.8273H19.3409C19.3409 24.9988 18.6694 24.3273 17.8409 24.3273V25.3273ZM27.5937 22.2592C27.7342 21.3503 27.031 20.5302 26.1113 20.5302V21.5302C26.4179 21.5302 26.6523 21.8036 26.6054 22.1065L27.5937 22.2592ZM26.3144 16.481C27.1429 16.481 27.8144 15.8094 27.8144 14.981H26.8144C26.8144 15.2571 26.5906 15.481 26.3144 15.481V16.481ZM14.7683 23.8273C14.7683 24.6557 15.4399 25.3273 16.2683 25.3273V24.3273C15.9922 24.3273 15.7683 24.1034 15.7683 23.8273H14.7683ZM25.8336 25.3273C26.5736 25.3273 27.2031 24.7876 27.3161 24.0563L26.3278 23.9036C26.2901 24.1474 26.0803 24.3273 25.8336 24.3273V25.3273ZM16.2683 20.5302C15.4399 20.5302 14.7683 21.2018 14.7683 22.0302H15.7683C15.7683 21.754 15.9922 21.5302 16.2683 21.5302V20.5302ZM23.453 25.8273C23.453 25.5511 23.6769 25.3273 23.953 25.3273V24.3273C23.1246 24.3273 22.453 24.9988 22.453 25.8273H23.453ZM21 4.25C11.7642 4.25 4.25 11.7642 4.25 21H6.25C6.25 12.8688 12.8688 6.25 21 6.25V4.25ZM4.25 21C4.25 30.2358 11.7642 37.75 21 37.75V35.75C12.8688 35.75 6.25 29.1312 6.25 21H4.25ZM21 37.75C30.2358 37.75 37.75 30.2358 37.75 21H35.75C35.75 29.1312 29.1312 35.75 21 35.75V37.75ZM37.75 21C37.75 11.7642 30.2358 4.25 21 4.25V6.25C29.1312 6.25 35.75 12.8688 35.75 21H37.75Z" fill="#F0D35E" mask="url(#path-1-inside-1_32_506)"/>
</svg>
