<svg width="187" height="55" viewBox="0 0 187 55" fill="none" xmlns="http://www.w3.org/2000/svg">
<path d="M94.7508 22.7795C91.4229 22.7795 88.6733 25.358 88.6733 28.8933C88.6733 32.3999 91.3941 35.0073 94.7508 35.0073C98.1076 35.0073 100.828 32.4285 100.828 28.8933C100.828 25.358 98.1076 22.7795 94.7508 22.7795ZM94.7508 32.5744C92.927 32.5744 91.3364 31.0381 91.3364 28.866C91.3364 26.6638 92.9281 25.1578 94.7508 25.1578C96.5732 25.1578 98.1649 26.6638 98.1649 28.866C98.1649 31.0381 96.5732 32.5744 94.7508 32.5744ZM81.5252 22.7795C78.1684 22.7795 75.4477 25.358 75.4477 28.8933C75.4477 32.3999 78.1684 35.0073 81.5252 35.0073C84.882 35.0073 87.6027 32.4285 87.6027 28.8933C87.6027 25.358 84.882 22.7795 81.5248 22.7795H81.5252ZM81.5252 32.5744C79.7014 32.5744 78.1112 31.0381 78.1112 28.866C78.1112 26.6638 79.7029 25.1578 81.5252 25.1578C83.349 25.1578 84.9396 26.6638 84.9396 28.866C84.9396 31.0381 83.3763 32.5744 81.5252 32.5744ZM65.8109 24.6631V27.2416H71.9457C71.7713 28.6903 71.2808 29.7625 70.5569 30.4874C69.6599 31.3853 68.2707 32.3709 65.8109 32.3709C62.0192 32.3709 59.0974 29.2997 59.0974 25.5036C59.0974 21.7074 62.0206 18.5781 65.8109 18.5781C67.865 18.5781 69.3417 19.3897 70.4416 20.4333L72.2639 18.607C70.7295 17.1298 68.6754 16 65.8109 16C60.63 16 56.2891 20.2588 56.2891 25.4458C56.2891 30.6333 60.63 34.8921 65.8109 34.8921C68.6178 34.8921 70.7021 33.9652 72.3803 32.2257C74.0877 30.5163 74.6088 28.1106 74.6088 26.1695C74.6088 25.5613 74.5511 25.0105 74.4635 24.5467L65.8109 24.6631ZM130.115 26.6623C129.623 25.3002 128.061 22.7795 124.934 22.7795C121.808 22.7795 119.233 25.2428 119.233 28.8933C119.233 32.3119 121.808 35.0073 125.224 35.0073C128.002 35.0073 129.594 33.2979 130.259 32.3119L128.205 30.9211C127.51 31.9361 126.584 32.6016 125.224 32.6016C123.863 32.6016 122.909 31.9933 122.3 30.747L130.374 27.3571L130.115 26.6623ZM121.896 28.7204C121.838 26.3726 123.72 25.1561 125.049 25.1561C126.121 25.1561 126.989 25.6778 127.307 26.4605L121.896 28.7204ZM115.326 34.6021H117.989V16.6945H115.326V34.6021ZM110.986 24.1415H110.9C110.293 23.4166 109.164 22.7795 107.716 22.7795C104.677 22.7795 101.928 25.4747 101.928 28.8933C101.928 32.3119 104.706 34.9787 107.716 34.9787C109.162 34.9787 110.291 34.341 110.9 33.5875H110.986V34.4565C110.986 36.8047 109.741 38.0495 107.745 38.0495C106.124 38.0495 105.11 36.8619 104.706 35.8763L102.392 36.8619C103.056 38.4847 104.823 40.4838 107.745 40.4838C110.87 40.4838 113.504 38.6292 113.504 34.1383V23.1558H110.986V24.1415ZM107.948 32.5744C106.124 32.5744 104.591 31.0381 104.591 28.8949C104.591 26.7517 106.125 25.1863 107.948 25.1863C109.743 25.1863 111.189 26.7517 111.189 28.8949C111.188 31.0091 109.741 32.5744 107.948 32.5744ZM142.53 16.6948H136.164V34.6021H138.826V27.8209H142.53C145.483 27.8209 148.376 25.6762 148.376 22.2579C148.376 18.8393 145.483 16.6945 142.53 16.6945V16.6948ZM142.616 25.3307H138.854V19.1864H142.616C144.584 19.1864 145.742 20.8381 145.742 22.2576C145.714 23.6485 144.586 25.3307 142.616 25.3307ZM158.998 22.7506C157.087 22.7506 155.09 23.5911 154.28 25.5036L156.625 26.4893C157.146 25.5036 158.072 25.185 159.056 25.185C160.445 25.185 161.834 26.0252 161.863 27.5024V27.6769C161.371 27.3872 160.359 26.9808 159.085 26.9808C156.539 26.9808 153.962 28.4006 153.962 31.0091C153.962 33.4145 156.046 34.9497 158.361 34.9497C160.156 34.9497 161.139 34.1383 161.747 33.1824H161.833V34.5735H164.408V27.7054C164.38 24.5476 162.036 22.7503 158.998 22.7503V22.7506ZM158.679 32.5455C157.811 32.5455 156.595 32.1102 156.595 31.0392C156.595 29.6484 158.099 29.1268 159.402 29.1268C160.559 29.1268 161.109 29.3876 161.833 29.735C161.63 31.3868 160.212 32.5455 158.679 32.5455ZM173.698 23.1573L170.66 30.8936H170.573L167.42 23.157H164.555L169.301 33.9938L166.609 40.05H169.387L176.65 23.157H173.698L173.698 23.1573ZM149.852 34.6021H152.515V16.6945H149.852V34.6021Z" fill="#F0D35E"/>
<path fill-rule="evenodd" clip-rule="evenodd" d="M39.9451 33.1147L34.4126 27.572L39.9407 22.0021C43.8891 24.1821 46.921 25.8476 47.5035 26.1531C49.3849 27.1662 48.4289 28.4705 47.5035 28.9635C47.3032 29.0632 45.6338 29.9823 43.157 31.3458L43.1548 31.347C42.756 31.5665 42.3362 31.7977 41.8986 32.0388C41.2811 32.3791 40.6273 32.7393 39.9451 33.1147ZM38.9377 33.6688L33.6346 28.3558L15.9138 46.2107C16.1274 46.1462 16.354 46.0486 16.596 45.9155C16.7773 45.8162 17.2183 45.5749 17.8664 45.22L17.9014 45.2009L17.905 45.1991C21.5523 43.2033 31.5666 37.7235 38.9377 33.6688ZM14.466 46.1014C13.9461 45.7505 13.6738 45.0165 13.6738 44.0892V11.1996C13.6738 10.1744 14.0347 9.54351 14.5344 9.22011L32.8545 27.5742L14.466 46.1014ZM15.8907 9.01562L33.6324 26.7903L38.9151 21.4676C35.6394 19.6777 17.7788 9.91979 16.5957 9.28945C16.3709 9.15562 16.1315 9.06556 15.8907 9.01562Z" fill="#F0D35E"/>
<rect x="0.5" y="0.5" width="186" height="54" stroke="#F0D35E"/>
</svg>
