<svg width="40" height="40" viewBox="0 0 40 40" fill="none" xmlns="http://www.w3.org/2000/svg">
<mask id="path-1-inside-1_32_504" fill="white">
<path d="M37.4961 19.5933C37.5 19.7065 37.5 19.8042 37.5 19.8901V20.1089C37.5 20.1948 37.4961 20.2925 37.4961 20.4058L37.4954 20.463C37.4917 20.7648 37.4876 21.1003 37.4766 21.4565C37.4453 22.5464 37.3906 23.6323 37.3047 24.6558C37.1875 26.0659 37.0195 27.2417 36.7812 28.1245C36.2812 29.9995 34.8125 31.4722 32.9414 31.9722C31.8398 32.2651 29.6719 32.4487 26.625 32.5659C25.1758 32.6206 23.625 32.6558 22.0742 32.6753C21.5312 32.6831 21.0273 32.687 20.5742 32.6909H19.4258C18.9727 32.687 18.4688 32.6831 17.9258 32.6753C16.375 32.6558 14.8242 32.6206 13.375 32.5659C10.3281 32.4526 8.16016 32.269 7.05859 31.9722C5.1875 31.4722 3.71875 29.9956 3.21875 28.1245C2.98438 27.2417 2.8125 26.0659 2.69531 24.6558C2.60938 23.6323 2.55469 22.5464 2.52344 21.4565C2.51562 21.0776 2.50781 20.7222 2.50391 20.4058C2.5 20.2925 2.5 20.1948 2.5 20.1089V19.8901C2.5 19.8042 2.50391 19.7065 2.50391 19.5933L2.50461 19.5361C2.50831 19.2343 2.51242 18.8987 2.52344 18.5425C2.55469 17.4526 2.60938 16.3667 2.69531 15.3433C2.8125 13.9331 2.98047 12.7573 3.21875 11.8745C3.46547 10.9529 3.95007 10.1124 4.624 9.43706C5.29793 8.76176 6.1375 8.27545 7.05859 8.02686C8.16016 7.73389 10.3281 7.55029 13.375 7.43311C14.8242 7.37842 16.375 7.34326 17.9258 7.32373C18.4688 7.31592 18.9727 7.31201 19.4258 7.30811H20.5742C21.0273 7.31201 21.5312 7.31592 22.0742 7.32373C23.625 7.34326 25.1758 7.37842 26.625 7.43311C29.6719 7.54639 31.8359 7.72998 32.9414 8.02686C33.8622 8.27606 34.7014 8.76258 35.3753 9.43778C36.0491 10.113 36.5339 10.9532 36.7812 11.8745C37.0156 12.7573 37.1875 13.9331 37.3047 15.3433C37.3906 16.3667 37.4453 17.4526 37.4766 18.5425C37.4844 18.9214 37.4922 19.2769 37.4961 19.5933Z"/>
</mask>
<path d="M18.0264 24.3593L18.2779 24.7915H18.2779L18.0264 24.3593ZM24.0895 20.8312L24.341 21.2634L24.0895 20.8312ZM24.0839 19.0994L24.3326 18.6656H24.3326L24.0839 19.0994ZM18.0208 15.6235L17.7721 16.0573L18.0208 15.6235ZM18.2779 24.7915L24.341 21.2634L23.838 20.3991L17.7749 23.9272L18.2779 24.7915ZM24.3326 18.6656L18.2695 15.1898L17.7721 16.0573L23.8352 19.5331L24.3326 18.6656ZM16.0234 16.4911V23.495H17.0234V16.4911H16.0234ZM18.2695 15.1898C17.2695 14.6165 16.0234 15.3384 16.0234 16.4911H17.0234C17.0234 16.1069 17.4388 15.8662 17.7721 16.0573L18.2695 15.1898ZM24.341 21.2634C25.3388 20.6828 25.3341 19.2398 24.3326 18.6656L23.8352 19.5331C24.1691 19.7245 24.1706 20.2055 23.838 20.3991L24.341 21.2634ZM17.7749 23.9272C17.4416 24.1211 17.0234 23.8807 17.0234 23.495H16.0234C16.0234 24.652 17.2779 25.3734 18.2779 24.7915L17.7749 23.9272ZM37.4961 19.5933L36.4962 19.6056L36.4963 19.6167L36.4967 19.6277L37.4961 19.5933ZM37.4766 18.5425L38.4764 18.5219L38.4762 18.5138L37.4766 18.5425ZM37.3047 15.3433L36.3081 15.4261L36.3082 15.4269L37.3047 15.3433ZM36.7812 11.8745L37.7478 11.6179L37.7471 11.6152L36.7812 11.8745ZM35.3753 9.43778L36.0831 8.73139L35.3753 9.43778ZM32.9414 8.02686L33.2027 7.06158L33.2008 7.06107L32.9414 8.02686ZM26.625 7.43311L26.5873 8.43239L26.5878 8.43241L26.625 7.43311ZM22.0742 7.32373L22.0598 8.32363L22.0616 8.32365L22.0742 7.32373ZM20.5742 7.30811L20.5828 6.30811H20.5742V7.30811ZM19.4258 7.30811V6.30807L19.4172 6.30814L19.4258 7.30811ZM17.9258 7.32373L17.9384 8.32365L17.9402 8.32363L17.9258 7.32373ZM13.375 7.43311L13.3373 6.43382L13.3366 6.43384L13.375 7.43311ZM7.05859 8.02686L6.80157 7.06044L6.79803 7.0614L7.05859 8.02686ZM4.624 9.43706L3.91618 8.73067V8.73067L4.624 9.43706ZM3.21875 11.8745L4.1842 12.1351L4.18473 12.1331L3.21875 11.8745ZM2.69531 15.3433L3.69181 15.4269L3.69188 15.4261L2.69531 15.3433ZM2.52344 18.5425L3.52296 18.5734L3.52303 18.5711L2.52344 18.5425ZM2.50461 19.5361L3.50453 19.5484L3.50453 19.5483L2.50461 19.5361ZM2.50391 19.5933L1.50391 19.581V19.5933H2.50391ZM2.5 19.8901H1.5H2.5ZM2.50391 20.4058L3.50383 20.3934L3.50369 20.3824L3.50331 20.3713L2.50391 20.4058ZM2.52344 21.4565L1.52362 21.4772L1.52385 21.4852L2.52344 21.4565ZM2.69531 24.6558L3.69188 24.5729L3.69181 24.5721L2.69531 24.6558ZM3.21875 28.1245L2.25223 28.3811L2.25265 28.3827L3.21875 28.1245ZM7.05859 31.9722L7.31881 31.0066L7.31676 31.0061L7.05859 31.9722ZM13.375 32.5659L13.4127 31.5666L13.4122 31.5666L13.375 32.5659ZM17.9258 32.6753L17.9402 31.6754L17.9384 31.6754L17.9258 32.6753ZM19.4258 32.6909L19.4172 33.6909H19.4258V32.6909ZM20.5742 32.6909V33.691L20.5828 33.6909L20.5742 32.6909ZM22.0742 32.6753L22.0616 31.6754L22.0598 31.6754L22.0742 32.6753ZM26.625 32.5659L26.6627 33.5652L26.6634 33.5652L26.625 32.5659ZM32.9414 31.9722L33.1984 32.9386L33.1996 32.9383L32.9414 31.9722ZM36.7812 28.1245L35.8158 27.8639L35.815 27.8669L36.7812 28.1245ZM37.3047 24.6558L36.3082 24.5721L36.3081 24.5729L37.3047 24.6558ZM37.4766 21.4565L36.477 21.4256L36.477 21.4279L37.4766 21.4565ZM37.4954 20.463L36.4955 20.4507V20.4507L37.4954 20.463ZM37.4961 20.4058L38.4961 20.418V20.4058H37.4961ZM38.5 19.8901C38.5 19.8046 38.5001 19.6913 38.4955 19.5588L36.4967 19.6277C36.4999 19.7218 36.5 19.8038 36.5 19.8901H38.5ZM38.496 19.5809C38.492 19.2592 38.4841 18.8982 38.4763 18.5219L36.4768 18.5631C36.4846 18.9446 36.4923 19.2945 36.4962 19.6056L38.496 19.5809ZM38.4762 18.5138C38.4445 17.4104 38.389 16.3056 38.3012 15.2596L36.3082 15.4269C36.3922 16.4278 36.4461 17.4949 36.477 18.5711L38.4762 18.5138ZM38.3013 15.2604C38.182 13.8256 38.004 12.5832 37.7478 11.6179L35.8147 12.1311C36.0272 12.9315 36.193 14.0406 36.3081 15.4261L38.3013 15.2604ZM37.7471 11.6152C37.4543 10.5249 36.8806 9.53048 36.0831 8.73139L34.6674 10.1442C35.2176 10.6955 35.6135 11.3815 35.8154 12.1338L37.7471 11.6152ZM36.0831 8.73139C35.2856 7.9323 34.2924 7.35651 33.2027 7.06158L32.6802 8.99213C33.432 9.19561 34.1173 9.59285 34.6674 10.1442L36.0831 8.73139ZM33.2008 7.06107C31.9667 6.72965 29.6857 6.54621 26.6622 6.4338L26.5878 8.43241C29.658 8.54656 31.7052 8.73031 32.682 8.99264L33.2008 7.06107ZM26.6627 6.43382C25.2033 6.37874 23.6439 6.34342 22.0868 6.32381L22.0616 8.32365C23.6061 8.3431 25.1483 8.37809 26.5873 8.43239L26.6627 6.43382ZM22.0886 6.32383C21.5421 6.31597 21.0348 6.31204 20.5828 6.30814L20.5656 8.30807C21.0199 8.31198 21.5204 8.31587 22.0598 8.32363L22.0886 6.32383ZM20.5742 6.30811H19.4258V8.30811H20.5742V6.30811ZM19.4172 6.30814C18.9652 6.31204 18.4579 6.31597 17.9114 6.32383L17.9402 8.32363C18.4796 8.31587 18.9801 8.31198 19.4344 8.30807L19.4172 6.30814ZM17.9132 6.32381C16.3561 6.34342 14.7967 6.37874 13.3373 6.43382L13.4127 8.43239C14.8517 8.37809 16.3939 8.3431 17.9384 8.32365L17.9132 6.32381ZM13.3366 6.43384C10.3135 6.55012 8.03 6.73374 6.80157 7.06045L7.31562 8.99326C8.29031 8.73403 10.3428 8.55047 13.4134 8.43237L13.3366 6.43384ZM6.79803 7.0614C5.70772 7.35566 4.71391 7.93131 3.91618 8.73067L5.33183 10.1434C5.88195 9.59221 6.56728 9.19523 7.31916 8.99231L6.79803 7.0614ZM3.91618 8.73067C3.11844 9.53003 2.54481 10.525 2.25277 11.6159L4.18473 12.1331C4.38613 11.3808 4.78171 10.6947 5.33183 10.1434L3.91618 8.73067ZM2.2533 11.6139C1.99167 12.5832 1.8177 13.829 1.69875 15.2604L3.69188 15.4261C3.8073 14.0372 3.96927 12.9314 4.1842 12.1351L2.2533 11.6139ZM1.69882 15.2596C1.61099 16.3056 1.55549 17.4104 1.52385 18.5138L3.52303 18.5711C3.55389 17.4949 3.60776 16.4278 3.69181 15.4269L1.69882 15.2596ZM1.52392 18.5116C1.51257 18.8785 1.50837 19.2229 1.50468 19.5238L3.50453 19.5483C3.50824 19.2456 3.51227 18.919 3.52296 18.5734L1.52392 18.5116ZM1.50468 19.5238L1.50398 19.581L3.50383 19.6055L3.50453 19.5484L1.50468 19.5238ZM1.50391 19.5933C1.50391 19.6391 1.50312 19.6831 1.50215 19.7322C1.50125 19.7776 1.5 19.835 1.5 19.8901H3.5C3.5 19.8594 3.5007 19.8249 3.50176 19.7718C3.50274 19.7222 3.50391 19.6607 3.50391 19.5933H1.50391ZM1.5 19.8901V20.1089H3.5V19.8901H1.5ZM1.5 20.1089C1.5 20.1945 1.49993 20.3078 1.5045 20.4402L3.50331 20.3713C3.50007 20.2772 3.5 20.1952 3.5 20.1089H1.5ZM1.50398 20.4181C1.50795 20.7398 1.51589 21.1009 1.52365 21.4772L3.52322 21.4359C3.51536 21.0544 3.50767 20.7045 3.50383 20.3934L1.50398 20.4181ZM1.52385 21.4852C1.55549 22.5886 1.61099 23.6935 1.69882 24.7394L3.69181 24.5721C3.60776 23.5712 3.55389 22.5042 3.52303 21.4279L1.52385 21.4852ZM1.69875 24.7386C1.81799 26.1734 1.99597 27.4159 2.25223 28.3811L4.18527 27.8679C3.97278 27.0675 3.80701 25.9584 3.69188 24.5729L1.69875 24.7386ZM2.25265 28.3827C2.84442 30.5972 4.58153 32.3453 6.80043 32.9383L7.31676 31.0061C5.79347 30.599 4.59308 29.394 4.18485 27.8664L2.25265 28.3827ZM6.79837 32.9377C8.02922 33.2694 10.3149 33.4528 13.3378 33.5652L13.4122 31.5666C10.3414 31.4524 8.29109 31.2687 7.31881 31.0066L6.79837 32.9377ZM13.3373 33.5652C14.7967 33.6203 16.3561 33.6556 17.9132 33.6752L17.9384 31.6754C16.3939 31.6559 14.8517 31.6209 13.4127 31.5666L13.3373 33.5652ZM17.9114 33.6752C18.4579 33.6831 18.9652 33.687 19.4172 33.6909L19.4344 31.691C18.9801 31.687 18.4796 31.6832 17.9402 31.6754L17.9114 33.6752ZM19.4258 33.6909H20.5742V31.6909H19.4258V33.6909ZM20.5828 33.6909C21.0348 33.687 21.5421 33.6831 22.0886 33.6752L22.0598 31.6754C21.5204 31.6832 21.0199 31.687 20.5656 31.691L20.5828 33.6909ZM22.0868 33.6752C23.6439 33.6556 25.2033 33.6203 26.6627 33.5652L26.5873 31.5666C25.1483 31.6209 23.6061 31.6559 22.0616 31.6754L22.0868 33.6752ZM26.6634 33.5652C29.6865 33.4489 31.97 33.2653 33.1984 32.9386L32.6844 31.0058C31.7097 31.265 29.6572 31.4486 26.5866 31.5667L26.6634 33.5652ZM33.1996 32.9383C35.4177 32.3455 37.1556 30.6018 37.7475 28.3822L35.815 27.8669C35.4069 29.3973 34.2073 30.5988 32.6832 31.0061L33.1996 32.9383ZM37.7467 28.3851C38.0083 27.4158 38.1823 26.17 38.3013 24.7386L36.3081 24.5729C36.1927 25.9618 36.0307 27.0676 35.8158 27.8639L37.7467 28.3851ZM38.3012 24.7394C38.389 23.6935 38.4445 22.5886 38.4762 21.4852L36.477 21.4279C36.4461 22.5042 36.3922 23.5712 36.3082 24.5721L38.3012 24.7394ZM38.4761 21.4875C38.4874 21.1206 38.4916 20.7761 38.4953 20.4752L36.4955 20.4507C36.4918 20.7534 36.4877 21.08 36.477 21.4256L38.4761 21.4875ZM38.4953 20.4752L38.496 20.418L36.4962 20.3935L36.4955 20.4507L38.4953 20.4752ZM38.4961 20.4058C38.4961 20.3599 38.4969 20.3159 38.4979 20.2669C38.4988 20.2214 38.5 20.164 38.5 20.1089H36.5C36.5 20.1397 36.4993 20.1741 36.4982 20.2273C36.4973 20.2769 36.4961 20.3383 36.4961 20.4058H38.4961ZM38.5 20.1089V19.8901H36.5V20.1089H38.5Z" fill="#F0D35E" mask="url(#path-1-inside-1_32_504)"/>
</svg>
