<svg width="187" height="55" viewBox="0 0 187 55" fill="none" xmlns="http://www.w3.org/2000/svg">
<path d="M42.0315 28.6201C42.0124 25.3966 43.4765 22.9671 46.4334 21.1757C44.7796 18.8125 42.2778 17.5127 38.9798 17.2622C35.8571 17.0164 32.4407 19.0772 31.1898 19.0772C29.8678 19.0772 26.8446 17.3472 24.4659 17.3472C19.5569 17.4229 14.3398 21.2514 14.3398 29.0407C14.3398 31.3426 14.7616 33.7201 15.605 36.1684C16.7328 39.392 20.7983 47.29 25.0393 47.1624C27.2569 47.1103 28.8253 45.5931 31.711 45.5931C34.5114 45.5931 35.9614 47.1624 38.435 47.1624C42.7138 47.1008 46.3908 39.9215 47.4616 36.6882C41.7235 33.9895 42.0315 28.7855 42.0315 28.6201ZM37.0511 14.2041C39.4536 11.3587 39.2357 8.76855 39.1647 7.8374C37.0419 7.96031 34.5873 9.27899 33.1894 10.9002C31.6494 12.6396 30.7444 14.7902 30.9387 17.2149C33.232 17.3898 35.3265 16.2129 37.0511 14.2041Z" fill="#F0D35E"/>
<path d="M67.9131 33.5012H65.4792L64.146 29.3032H59.5125L58.2425 33.5012H55.873L60.4639 19.2095H63.2994L67.9131 33.5012ZM63.7442 27.542L62.5385 23.8101C62.4114 23.4289 62.1721 22.5311 61.8195 21.1178H61.7769C61.6365 21.7257 61.4104 22.6235 61.0994 23.8101L59.9154 27.542H63.7442Z" fill="#F0D35E"/>
<path d="M79.7193 28.2219C79.7193 29.9745 79.2469 31.3599 78.3015 32.377C77.4549 33.2823 76.4036 33.7344 75.1487 33.7344C73.7941 33.7344 72.8211 33.2467 72.2285 32.2717H72.1855V37.7003H69.901V26.5885C69.901 25.4866 69.8719 24.3558 69.8164 23.1959H71.8256L71.9532 24.8294H71.9958C72.7578 23.5987 73.9143 22.9844 75.4659 22.9844C76.6789 22.9844 77.6916 23.4644 78.5018 24.4256C79.3142 25.3878 79.7193 26.6529 79.7193 28.2219ZM77.3917 28.3056C77.3917 27.3026 77.1667 26.4757 76.7146 25.8249C76.2205 25.1462 75.557 24.8068 74.7256 24.8068C74.1617 24.8068 73.6496 24.9958 73.192 25.3685C72.7332 25.7443 72.4333 26.2351 72.2929 26.843C72.2223 27.1265 72.1866 27.3585 72.1866 27.541V29.2593C72.1866 30.0089 72.416 30.6415 72.8747 31.1578C73.3335 31.6744 73.9294 31.9322 74.6623 31.9322C75.5229 31.9322 76.1926 31.5993 76.6716 30.9356C77.1516 30.2709 77.3917 29.3946 77.3917 28.3056Z" fill="#F0D35E"/>
<path d="M91.5466 28.2219C91.5466 29.9745 91.0739 31.3599 90.1278 32.377C89.2823 33.2823 88.231 33.7344 86.976 33.7344C85.6215 33.7344 84.6485 33.2467 84.057 32.2717H84.014V37.7003H81.7294V26.5885C81.7294 25.4866 81.7004 24.3558 81.6445 23.1959H83.6541L83.7813 24.8294H83.8243C84.5852 23.5987 85.7417 22.9844 87.2944 22.9844C88.5063 22.9844 89.519 23.4644 90.3314 24.4256C91.1405 25.3878 91.5466 26.6529 91.5466 28.2219ZM89.2191 28.3056C89.2191 27.3026 88.993 26.4757 88.5409 25.8249C88.0468 25.1462 87.3855 24.8068 86.5529 24.8068C85.988 24.8068 85.477 24.9958 85.0183 25.3685C84.5595 25.7443 84.2607 26.2351 84.1202 26.843C84.0504 27.1265 84.014 27.3585 84.014 27.541V29.2593C84.014 30.0089 84.2434 30.6415 84.6999 31.1578C85.1587 31.6733 85.7545 31.9322 86.4897 31.9322C87.3502 31.9322 88.02 31.5993 88.499 30.9356C88.979 30.2709 89.2191 29.3946 89.2191 28.3056Z" fill="#F0D35E"/>
<path d="M104.771 29.4932C104.771 30.7088 104.35 31.698 103.505 32.4614C102.576 33.296 101.282 33.7125 99.6199 33.7125C98.0852 33.7125 96.8549 33.4162 95.9238 32.8222L96.4532 30.9141C97.4563 31.522 98.5569 31.8267 99.7559 31.8267C100.616 31.8267 101.286 31.6313 101.767 31.2426C102.246 30.854 102.486 30.332 102.486 29.6812C102.486 29.1013 102.288 28.6126 101.893 28.2164C101.499 27.8201 100.843 27.4517 99.9254 27.1113C97.4284 26.178 96.1811 24.811 96.1811 23.0132C96.1811 21.8384 96.6182 20.8751 97.4938 20.1254C98.3661 19.3748 99.5299 19 100.985 19C102.283 19 103.361 19.2266 104.221 19.6787L103.651 21.5452C102.847 21.107 101.938 20.8879 100.921 20.8879C100.117 20.8879 99.4891 21.0866 99.0391 21.4818C98.6587 21.8351 98.4679 22.2658 98.4679 22.7759C98.4679 23.3408 98.6855 23.8079 99.1226 24.1752C99.503 24.5146 100.194 24.8818 101.197 25.2781C102.424 25.7732 103.326 26.352 103.905 27.0157C104.483 27.6772 104.771 28.5052 104.771 29.4932Z" fill="#F0D35E"/>
<path d="M112.325 24.9144H109.807V29.9178C109.807 31.1904 110.25 31.8262 111.14 31.8262C111.548 31.8262 111.887 31.7907 112.155 31.7199L112.218 33.4586C111.768 33.6269 111.175 33.712 110.441 33.712C109.539 33.712 108.834 33.4359 108.325 32.8852C107.818 32.333 107.563 31.4071 107.563 30.1068V24.9123H106.062V23.194H107.563V21.3071L109.807 20.6284V23.194H112.325V24.9144Z" fill="#F0D35E"/>
<path d="M123.69 28.2637C123.69 29.8477 123.237 31.1482 122.335 32.1653C121.389 33.2122 120.133 33.7343 118.567 33.7343C117.058 33.7343 115.857 33.2327 114.961 32.2295C114.065 31.2267 113.617 29.9604 113.617 28.4344C113.617 26.8375 114.078 25.5295 115.003 24.5125C115.925 23.4944 117.171 22.9854 118.736 22.9854C120.245 22.9854 121.459 23.4869 122.376 24.491C123.252 25.465 123.69 26.7226 123.69 28.2637ZM121.319 28.3378C121.319 27.3873 121.116 26.5722 120.706 25.8925C120.227 25.0699 119.542 24.6596 118.655 24.6596C117.736 24.6596 117.039 25.0709 116.56 25.8925C116.15 26.5733 115.947 27.4013 115.947 28.3807C115.947 29.3311 116.15 30.1462 116.56 30.8248C117.054 31.6476 117.744 32.0579 118.634 32.0579C119.507 32.0579 120.192 31.6392 120.686 30.8035C121.107 30.1108 121.319 29.2871 121.319 28.3378Z" fill="#F0D35E"/>
<path d="M131.115 25.2095C130.889 25.1677 130.648 25.1462 130.395 25.1462C129.591 25.1462 128.97 25.4501 128.532 26.059C128.152 26.596 127.961 27.2747 127.961 28.0941V33.5012H125.678L125.699 26.4413C125.699 25.2536 125.67 24.1721 125.613 23.197H127.603L127.687 25.1687H127.75C127.991 24.4911 128.372 23.9455 128.893 23.5364C129.401 23.168 129.951 22.9844 130.544 22.9844C130.755 22.9844 130.946 22.9994 131.115 23.0262V25.2095Z" fill="#F0D35E"/>
<path d="M141.332 27.8613C141.332 28.2715 141.306 28.6174 141.249 28.8998H134.394C134.421 29.9178 134.753 30.6964 135.389 31.2336C135.967 31.7135 136.714 31.9541 137.631 31.9541C138.646 31.9541 139.572 31.792 140.405 31.4664L140.762 33.0559C139.789 33.4812 138.64 33.6928 137.315 33.6928C135.72 33.6928 134.469 33.2224 133.558 32.2826C132.649 31.3428 132.193 30.0811 132.193 28.4981C132.193 26.9442 132.617 25.6501 133.464 24.6181C134.352 23.5162 135.551 22.9653 137.06 22.9653C138.542 22.9653 139.664 23.5162 140.426 24.6181C141.029 25.4933 141.332 26.5758 141.332 27.8613ZM139.154 27.2674C139.169 26.5887 139.02 26.0024 138.71 25.5073C138.315 24.8705 137.707 24.5526 136.889 24.5526C136.142 24.5526 135.535 24.8629 135.071 25.4858C134.69 25.9809 134.464 26.5748 134.394 27.2664H139.154V27.2674Z" fill="#F0D35E"/>
<rect x="0.5" y="0.5" width="186" height="54" stroke="#F0D35E"/>
</svg>
