<svg width="31" height="32" viewBox="0 0 31 32" fill="none" xmlns="http://www.w3.org/2000/svg">
<path d="M23.6326 5.54859C22.3473 5.54872 21.3086 6.58757 21.3086 7.87291C21.3086 9.15833 22.3475 10.1972 23.6329 10.1972C24.9174 10.1972 25.9569 9.16316 25.9572 7.87354M23.6326 5.54859C23.9379 5.54826 24.2403 5.60814 24.5224 5.72479C24.8047 5.84149 25.0611 6.01273 25.2771 6.2287C25.4931 6.44467 25.6643 6.70112 25.781 6.98337C25.8977 7.26561 25.9576 7.56811 25.9572 7.87354M23.6326 5.54859C23.6327 5.54859 23.6328 5.54859 23.6329 5.54859V6.04859L23.6322 5.54859C23.6324 5.54859 23.6325 5.54859 23.6326 5.54859ZM25.9572 7.87354L25.4572 7.87291H25.9572C25.9572 7.87312 25.9572 7.87333 25.9572 7.87354ZM23.6329 6.54859L23.6335 6.54859C23.8074 6.54837 23.9796 6.58246 24.1403 6.64891C24.301 6.71535 24.447 6.81285 24.57 6.93581C24.6929 7.05876 24.7904 7.20477 24.8569 7.36547C24.9233 7.52617 24.9574 7.6984 24.9572 7.87228V7.87291C24.9572 8.60917 24.3667 9.19723 23.6329 9.19723C22.8997 9.19723 22.3086 8.60604 22.3086 7.87291C22.3086 7.13978 22.8997 6.54859 23.6329 6.54859ZM15.5015 7.68902C10.9026 7.68902 7.1901 11.4016 7.1901 16.0004C7.1901 20.5993 10.9026 24.3119 15.5015 24.3119C20.1004 24.3119 23.8129 20.5993 23.8129 16.0004C23.8129 11.4016 20.1004 7.68902 15.5015 7.68902ZM8.1901 16.0004C8.1901 11.9538 11.4549 8.68902 15.5015 8.68902C19.5481 8.68902 22.8129 11.9538 22.8129 16.0004C22.8129 20.0471 19.5481 23.3119 15.5015 23.3119C11.4549 23.3119 8.1901 20.0471 8.1901 16.0004ZM15.5015 20.5773C12.9822 20.5773 10.9247 18.5198 10.9247 16.0004C10.9247 13.4811 12.9822 11.4236 15.5015 11.4236C18.0209 11.4236 20.0784 13.4811 20.0784 16.0004C20.0784 18.5198 18.0209 20.5773 15.5015 20.5773ZM9.92467 16.0004C9.92467 19.0721 12.4299 21.5773 15.5015 21.5773C18.5732 21.5773 21.0784 19.0721 21.0784 16.0004C21.0784 12.9288 18.5732 10.4236 15.5015 10.4236C12.4299 10.4236 9.92467 12.9288 9.92467 16.0004ZM30.1298 9.74046L30.13 9.74436C30.2328 11.5714 30.2309 13.3867 30.2288 15.2302C30.2286 15.4864 30.2283 15.7431 30.2283 16.0004C30.2283 16.2887 30.2287 16.5762 30.2291 16.8629C30.2318 18.6752 30.2344 20.4596 30.1301 22.2556L30.1298 22.2604C30.0148 24.6353 29.482 26.6514 27.8192 28.3143C26.16 29.9734 24.14 30.5099 21.7653 30.6249L21.7614 30.6252C19.9344 30.728 18.119 30.726 16.2756 30.724C16.0194 30.7237 15.7627 30.7234 15.5053 30.7234C15.2485 30.7234 14.9923 30.7237 14.7365 30.724C12.8955 30.726 11.0797 30.728 9.24919 30.6251L9.24534 30.625C6.87048 30.5099 4.85438 29.9772 3.1915 28.3143C1.53233 26.6551 0.995843 24.6351 0.880836 22.2604L0.880617 22.2565C0.77782 20.4294 0.779809 18.611 0.781823 16.7693C0.782103 16.5135 0.782383 16.2572 0.782383 16.0004C0.782383 15.7436 0.782103 15.4874 0.781823 15.2316C0.779809 13.3906 0.777822 11.5748 0.88062 9.7443L0.880634 9.74431L0.880821 9.74046C0.995853 7.36559 1.52863 5.3495 3.1915 3.68662C4.85067 2.02745 6.8707 1.49096 9.24534 1.37594L9.24534 1.37595L9.24924 1.37573C11.0763 1.27294 12.8916 1.27493 14.7351 1.27694C14.9913 1.27722 15.248 1.2775 15.5053 1.2775C15.7622 1.2775 16.0184 1.27722 16.2742 1.27694C18.1152 1.27493 19.931 1.27294 21.7615 1.37574V1.37575L21.7653 1.37594C24.1402 1.49097 26.1563 2.02374 27.8192 3.68662C29.4783 5.34579 30.0148 7.36581 30.1298 9.74046ZM15.5015 8.18902C11.1788 8.18902 7.6901 11.6777 7.6901 16.0004C7.6901 20.3232 11.1788 23.8119 15.5015 23.8119C19.8243 23.8119 23.3129 20.3232 23.3129 16.0004C23.3129 11.6777 19.8243 8.18902 15.5015 8.18902Z" stroke="#F0D35E"/>
</svg>
