<svg width="27" height="27" viewBox="0 0 27 27" fill="none" xmlns="http://www.w3.org/2000/svg">
<path fill-rule="evenodd" clip-rule="evenodd" d="M8.33006 19.5266C12.1804 18.9641 14.8314 19.0125 18.6868 19.5463C18.966 19.5868 19.2211 19.7269 19.4051 19.9408C19.589 20.1548 19.6893 20.428 19.6875 20.7101C19.6875 20.9801 19.5947 21.2422 19.4271 21.447C19.1349 21.804 18.8356 22.1551 18.5293 22.5H20.0149C20.1083 22.3886 20.2022 22.275 20.2973 22.1597C20.6309 21.7505 20.8129 21.2386 20.8125 20.7107C20.8125 19.5716 19.9811 18.5901 18.8409 18.4326C14.8944 17.8864 12.1359 17.8341 8.1675 18.414C7.0155 18.5822 6.1875 19.5789 6.1875 20.7259C6.1875 21.2349 6.35344 21.7384 6.66788 22.1462C6.76069 22.2666 6.85237 22.3847 6.9435 22.5006H8.39306C8.10811 22.1594 7.83018 21.8125 7.55944 21.4599C7.39854 21.2489 7.31175 20.9907 7.3125 20.7253C7.3125 20.1195 7.74788 19.6116 8.33006 19.5266ZM13.5 14.0625C13.9432 14.0625 14.3821 13.9752 14.7916 13.8056C15.201 13.636 15.5731 13.3874 15.8865 13.074C16.1999 12.7606 16.4485 12.3885 16.6181 11.9791C16.7877 11.5696 16.875 11.1307 16.875 10.6875C16.875 10.2443 16.7877 9.80542 16.6181 9.39594C16.4485 8.98647 16.1999 8.61441 15.8865 8.30101C15.5731 7.98762 15.201 7.73902 14.7916 7.56941C14.3821 7.3998 13.9432 7.3125 13.5 7.3125C12.6049 7.3125 11.7464 7.66808 11.1135 8.30101C10.4806 8.93395 10.125 9.79239 10.125 10.6875C10.125 11.5826 10.4806 12.4411 11.1135 13.074C11.7464 13.7069 12.6049 14.0625 13.5 14.0625ZM13.5 15.1875C14.6935 15.1875 15.8381 14.7134 16.682 13.8695C17.5259 13.0256 18 11.881 18 10.6875C18 9.49403 17.5259 8.34943 16.682 7.50552C15.8381 6.66161 14.6935 6.1875 13.5 6.1875C12.3065 6.1875 11.1619 6.66161 10.318 7.50552C9.47411 8.34943 9 9.49403 9 10.6875C9 11.881 9.47411 13.0256 10.318 13.8695C11.1619 14.7134 12.3065 15.1875 13.5 15.1875Z" fill="#252927"/>
<path fill-rule="evenodd" clip-rule="evenodd" d="M13.5 23.625C19.0918 23.625 23.625 19.0918 23.625 13.5C23.625 7.90819 19.0918 3.375 13.5 3.375C7.90819 3.375 3.375 7.90819 3.375 13.5C3.375 19.0918 7.90819 23.625 13.5 23.625ZM13.5 24.75C19.7134 24.75 24.75 19.7134 24.75 13.5C24.75 7.28663 19.7134 2.25 13.5 2.25C7.28663 2.25 2.25 7.28663 2.25 13.5C2.25 19.7134 7.28663 24.75 13.5 24.75Z" fill="#252927"/>
</svg>
